<svg viewBox="0 0 24 24" xmlns="http://www.w3.org/2000/svg" class="w-6 h-6 fill-current text-primary">
  <circle cx="17.75" cy="20.59" r="1.91" />
  <circle cx="9.16" cy="20.59" r="1.91" />

  <rect x="11.07" y="20.1" width="4.77" height="1" rx="0.5" />

  <path d="M5.34 20.59h1.91v-5.73l1.19-3A2.86 2.86 0 0 1 11.1 10h6a2.87 2.87 0 0 1 2.46 1.39l2 3.38a2.87 2.87 0 0 1 2.86 2.87v2.86h-4.82v-1h3.82v-1.86a1.87 1.87 0 0 0-1.86-1.87h-.59l-1.85-3.13a1.87 1.87 0 0 0-1.59-.93h-6a1.86 1.86 0 0 0-1.73 1.17l-1.17 2.94v6.01z" />

  <rect x="11.07" y="14.36" width="8.59" height="1" />
  <rect x="13.43" y="12" width="1" height="2.86" />

  <path d="M1.47 14.86V7.23c0-1.61 1.31-2.87 2.92-2.87h11.45v1H4.39A1.87 1.87 0 0 0 2.47 7.23v7.63c0 1.04.84 1.87 1.87 1.87h1v1h-1a2.87 2.87 0 0 1-2.87-2.87z" />

  <path d="M17.75 1.5h1.91v5.73h-1.91a1.91 1.91 0 0 1-1.91-1.91V3.41a1.91 1.91 0 0 1 1.91-1.91z" />

  <rect x="19.66" y="2.0" width="3.82" height="1" />
  <rect x="19.66" y="5.77" width="3.82" height="1" />
</svg>
